<svg width="72" height="72" viewBox="0 0 72 72" fill="none" xmlns="http://www.w3.org/2000/svg">
<rect width="72" height="72" fill="#E5E5E5"/>
<rect width="72" height="72" rx="5" fill="#797979" fill-opacity="0.2"/>
<path fill-rule="evenodd" clip-rule="evenodd" d="M47.25 22.875H24.75C24.2527 22.875 23.7758 23.0725 23.4242 23.4242C23.0725 23.7758 22.875 24.2527 22.875 24.75V47.25C22.875 47.7473 23.0725 48.2242 23.4242 48.5758C23.7758 48.9275 24.2527 49.125 24.75 49.125H47.25C47.7473 49.125 48.2242 48.9275 48.5758 48.5758C48.9275 48.2242 49.125 47.7473 49.125 47.25V24.75C49.125 24.2527 48.9275 23.7758 48.5758 23.4242C48.2242 23.0725 47.7473 22.875 47.25 22.875ZM24.75 21C23.7554 21 22.8016 21.3951 22.0983 22.0983C21.3951 22.8016 21 23.7554 21 24.75V47.25C21 48.2446 21.3951 49.1984 22.0983 49.9016C22.8016 50.6049 23.7554 51 24.75 51H47.25C48.2446 51 49.1984 50.6049 49.9016 49.9016C50.6049 49.1984 51 48.2446 51 47.25V24.75C51 23.7554 50.6049 22.8016 49.9016 22.0983C49.1984 21.3951 48.2446 21 47.25 21H24.75Z" fill="#F3F0EB"/>
<path fill-rule="evenodd" clip-rule="evenodd" d="M24.75 49.125V47.25C24.75 45.375 26.625 39.75 36 39.75C45.375 39.75 47.25 45.375 47.25 47.25V49.125H24.75ZM36 37.875C37.4918 37.875 38.9226 37.2824 39.9775 36.2275C41.0324 35.1726 41.625 33.7418 41.625 32.25C41.625 30.7582 41.0324 29.3274 39.9775 28.2725C38.9226 27.2176 37.4918 26.625 36 26.625C34.5082 26.625 33.0774 27.2176 32.0225 28.2725C30.9676 29.3274 30.375 30.7582 30.375 32.25C30.375 33.7418 30.9676 35.1726 32.0225 36.2275C33.0774 37.2824 34.5082 37.875 36 37.875V37.875Z" fill="#F3F0EB"/>
</svg>
