<svg width="44" height="55" viewBox="0 0 44 55" fill="none" xmlns="http://www.w3.org/2000/svg">
<path d="M39.9803 54.2722H10.8132C9.09642 54.2722 7.70557 52.8814 7.70557 51.1647V11.1442C7.70557 9.42747 9.09642 8.03662 10.8132 8.03662H39.9803C41.697 8.03662 43.0879 9.42747 43.0879 11.1442V51.1647C43.0879 52.8814 41.697 54.2722 39.9803 54.2722Z" fill="#F3F0EB"/>
<path d="M39.98 55.0001H10.8128C8.70034 55.0001 6.97778 53.2775 6.97778 51.165V11.1446C6.97778 9.03213 8.70034 7.30957 10.8128 7.30957H39.98C42.0924 7.30957 43.815 9.03213 43.815 11.1446V51.165C43.815 53.2775 42.0924 55.0001 39.98 55.0001ZM10.8128 8.76444C9.49761 8.76444 8.43265 9.8294 8.43265 11.1446V51.165C8.43265 52.4802 9.49761 53.5452 10.8128 53.5452H39.98C41.2952 53.5452 42.3601 52.4802 42.3601 51.165V11.1446C42.3601 9.8294 41.2952 8.76444 39.98 8.76444H10.8128Z" fill="#333333"/>
<path d="M34.0789 48.971H4.91179C3.19505 48.971 1.8042 47.5801 1.8042 45.8634V5.84294C1.8042 4.1262 3.19505 2.73535 4.91179 2.73535H34.0789C35.7957 2.73535 37.1865 4.1262 37.1865 5.84294V45.8634C37.1865 47.5743 35.7957 48.971 34.0789 48.971Z" fill="#F3F0EB"/>
<path d="M34.079 50.3091H4.91189C2.4619 50.3091 0.46582 48.313 0.46582 45.863V5.84255C0.46582 3.39256 2.4619 1.39648 4.91189 1.39648H34.079C36.529 1.39648 38.5251 3.39256 38.5251 5.84255V45.863C38.5251 48.313 36.529 50.3091 34.079 50.3091ZM4.91189 4.07344C3.93422 4.07344 3.14277 4.86488 3.14277 5.84255V45.863C3.14277 46.8407 3.93422 47.6321 4.91189 47.6321H34.079C35.0567 47.6321 35.8481 46.8407 35.8481 45.863V5.84255C35.8481 4.86488 35.0567 4.07344 34.079 4.07344H4.91189Z" fill="#333333"/>
<path d="M17.953 0H0V44.2861H17.953V0Z" fill="#F3F0EB"/>
<path d="M32.8451 24.6455H5.23755V26.1004H32.8451V24.6455Z" fill="#333333"/>
<path d="M32.8451 37.9902H5.23755V39.4451H32.8451V37.9902Z" fill="#333333"/>
<path d="M15.0783 16.2885L11.4237 13.2042C10.8941 12.7561 10.0096 12.7561 9.47999 13.2042L5.82537 16.2885C5.46456 16.5969 4.8186 16.3874 4.8186 15.9626V1.22772C4.8186 0.965848 5.08048 0.756348 5.40055 0.756348H15.5031C15.8232 0.756348 16.0851 0.965848 16.0851 1.22772V15.9626C16.0851 16.3874 15.4449 16.5969 15.0783 16.2885Z" fill="#FFA234"/>
</svg>
