<svg width="41" height="56" viewBox="0 0 41 56" fill="none" xmlns="http://www.w3.org/2000/svg">
<path d="M15.7977 38.9819V35.6177C15.7977 35.3897 15.9923 35.1951 16.2203 35.1951C16.4482 35.1951 16.6429 35.3897 16.6429 35.6177V39.4156L20.4686 41.3896V30.1294H17.3657C17.3657 30.1294 17.0877 30.1294 16.9431 30.1294C16.9209 30.1294 16.9042 30.1294 16.882 30.1294C14.4075 30.1683 12.4224 32.1646 12.4224 34.6502C12.4224 34.7113 12.4224 34.7836 12.4224 34.8448C12.4224 34.8837 12.4224 34.9171 12.4224 34.956V37.2414L15.7977 38.9819Z" fill="#FFA234"/>
<path d="M24.2385 43.3803V35.6177C24.2385 35.3897 24.4332 35.1951 24.6611 35.1951C24.8891 35.1951 25.0837 35.3897 25.0837 35.6177V43.2636L28.459 40.9059V34.956C28.459 34.9171 28.459 34.8837 28.459 34.8448C28.459 34.7836 28.459 34.7113 28.459 34.6502C28.459 32.1646 26.4683 30.1628 23.9994 30.1294C23.9772 30.1294 23.9605 30.1294 23.9383 30.1294C23.7937 30.1294 23.5157 30.1294 23.5157 30.1294H20.4128V41.4063L24.2385 43.3803Z" fill="#FFA234"/>
<path d="M20.8079 52.2883C19.9015 52.2883 18.9673 52.1104 17.9942 51.7489C15.5698 50.8537 13.8349 50.1975 12.5671 49.7193C9.22515 48.457 9.22515 48.457 8.202 48.4181C8.06854 48.4126 7.91841 48.407 7.74603 48.3959C6.367 48.3291 3.21969 50.5423 1.55707 51.9547L0.65625 50.8981C0.700735 50.8592 1.82954 49.9028 3.24193 48.9464C5.24931 47.584 6.75068 46.9501 7.81832 47.0057C7.98513 47.0168 8.12971 47.0224 8.2576 47.028C9.50874 47.078 9.57547 47.1058 13.062 48.4181C14.3242 48.8963 16.0591 49.5469 18.478 50.4422C21.3139 51.4876 23.2268 50.5423 24.8783 49.3634C27.6419 47.3894 29.3323 46.0437 30.9671 44.7481C32.0681 43.8695 33.2081 42.9632 34.6427 41.8955C36.8614 40.244 37.1394 38.9262 36.6612 38.2422C36.2553 37.6639 35.2043 37.4026 34.4147 37.9253C32.0681 39.4767 32.0681 39.4767 25.1174 44.2032L24.3333 43.0521C31.2896 38.3145 31.2896 38.3145 33.6474 36.7631C35.0097 35.8623 36.9114 36.1737 37.8011 37.4415C38.3127 38.1699 38.3961 39.0874 38.0347 40.0272C37.651 41.0225 36.7947 42.0234 35.4768 43.0076C34.0588 44.0642 32.9801 44.9261 31.8346 45.8324C30.1887 47.1447 28.4815 48.5015 25.6901 50.4922C24.8894 51.065 23.7995 51.76 22.426 52.0937C21.8922 52.2216 21.3528 52.2883 20.8079 52.2883Z" fill="#F3F0EB"/>
<path d="M22.9929 47.4392C22.9262 47.4392 22.865 47.4392 22.8094 47.4392C22.776 47.4392 22.7482 47.4392 22.726 47.4392C22.5536 47.4392 22.2978 47.4392 17.955 46.0935C15.8531 45.4429 13.7901 44.7812 13.7678 44.7757L14.1904 43.4522C17.9494 44.6533 22.1977 45.9601 22.7593 46.049C22.7816 46.049 22.8038 46.049 22.8261 46.049C23.7769 46.0602 24.3942 45.9045 24.6611 45.5875C24.7222 45.5152 24.9057 45.2984 24.789 44.6867C24.7778 44.6366 24.65 44.1862 22.8706 43.2243C21.6083 42.5403 19.9401 41.8285 18.3442 41.1501C15.7252 40.0436 12.1441 38.5311 10.6483 38.4644C7.75681 38.3254 1.50112 41.5394 1.43439 41.5728L0.794922 40.3383C1.06739 40.1993 7.45098 36.9185 10.7095 37.0742C12.3221 37.1521 15.3637 38.3865 18.8836 39.8712C23.6046 41.8619 25.8955 43.0519 26.1513 44.4253C26.3126 45.2594 26.168 45.949 25.7232 46.4772C24.978 47.3725 23.6602 47.4392 22.9929 47.4392ZM22.7315 46.049C22.7315 46.049 22.726 46.049 22.7315 46.049V46.049Z" fill="#F3F0EB"/>
<path d="M20.819 55.6356C19.9071 55.6356 18.9062 55.4688 17.8108 55.0629C15.3808 54.1676 13.6459 53.5115 12.3836 53.0333C9.12509 51.8044 9.12509 51.8044 8.19091 51.7654C8.05745 51.7599 7.90175 51.7543 7.72938 51.7432C7.57368 51.7376 6.67842 51.7766 4.36521 53.3391C3.03622 54.2344 1.94634 55.163 1.93522 55.1741L0.311523 53.2668C0.361569 53.2279 1.50705 52.2492 2.94725 51.2761C5.06028 49.847 6.6673 49.1798 7.86283 49.2409C8.02965 49.252 8.16866 49.2576 8.29656 49.2576C9.63667 49.3132 9.77012 49.3633 13.2733 50.6811C14.5356 51.1593 16.2649 51.8099 18.6838 52.7052C21.1304 53.606 22.8042 52.9554 24.5669 51.6932C27.3194 49.7303 29.0043 48.3902 30.6335 47.0945C31.7401 46.216 32.8856 45.304 34.3258 44.2308C36.094 42.913 36.5445 41.812 36.2219 41.3449C35.9717 40.989 35.2544 40.8333 34.7373 41.1725C32.3907 42.7183 32.3907 42.7183 25.451 47.4449L24.022 45.3874C30.9783 40.6498 30.9783 40.6498 33.3415 39.0928C34.9486 38.0307 37.195 38.4089 38.2516 39.9158C38.8743 40.7999 38.9744 41.9009 38.5463 43.0186C38.1237 44.114 37.2062 45.1984 35.8049 46.2438C34.3925 47.2947 33.3193 48.151 32.1738 49.0574C30.5223 50.3753 28.8096 51.7321 26.0071 53.7339C24.6948 54.6792 23.0044 55.6356 20.819 55.6356Z" fill="#333333"/>
<path d="M22.9987 50.7809C22.9264 50.7809 22.8597 50.7809 22.7986 50.7809C22.7707 50.7809 22.7429 50.7809 22.7207 50.7809C22.4594 50.7809 22.2091 50.7809 17.7829 49.4075C15.681 48.7569 13.6124 48.0952 13.5902 48.0896L14.352 45.7041C18.0109 46.8718 22.109 48.1341 22.8041 48.2731C22.8097 48.2731 22.8152 48.2731 22.8208 48.2731C22.8542 48.2731 22.882 48.2731 22.9153 48.2731C23.9218 48.2731 24.172 48.0729 24.2221 48.0118C24.2554 47.9728 24.2721 47.8394 24.2388 47.6392C24.1553 47.5224 23.7772 47.1109 22.3037 46.3436C21.0914 45.7152 19.5734 45.0646 18.1165 44.4474C15.6865 43.4187 12.011 41.8673 10.6097 41.8006C8.32985 41.6893 3.39203 43.9636 1.67937 44.8478L0.52832 42.6235C0.595048 42.5902 2.21318 41.7561 4.24281 40.9275C7.06759 39.7765 9.25291 39.226 10.7265 39.2983C12.4336 39.3761 15.3974 40.5772 19.0896 42.1342C20.73 42.8237 22.4427 43.5633 23.7828 44.2861C25.64 45.2871 26.5075 46.1323 26.6854 47.0998C26.9245 48.351 26.5186 49.1572 26.1349 49.6132C25.2452 50.7031 23.7494 50.7809 22.9987 50.7809Z" fill="#333333"/>
<path d="M21.1636 7.66943H19.7734V20.0974H21.1636V7.66943Z" fill="#333333"/>
<path d="M20.4686 5.02862C19.2564 5.02862 18.2722 4.0444 18.2722 2.83218C18.2722 1.61997 19.2564 0.635742 20.4686 0.635742C21.6809 0.635742 22.6651 1.61997 22.6651 2.83218C22.6651 4.0444 21.6809 5.02862 20.4686 5.02862ZM20.4686 2.02589C20.0238 2.02589 19.6624 2.38733 19.6624 2.83218C19.6624 3.27703 20.0238 3.63847 20.4686 3.63847C20.9135 3.63847 21.2749 3.27703 21.2749 2.83218C21.2749 2.38733 20.9135 2.02589 20.4686 2.02589Z" fill="#333333"/>
<path d="M7.10403 14.2765L6.14844 15.2861L15.1749 23.8291L16.1305 22.8194L7.10403 14.2765Z" fill="#333333"/>
<path d="M2.19644 12.6082C0.984228 12.6082 0 11.624 0 10.4118C0 9.19956 0.984228 8.21533 2.19644 8.21533C3.40865 8.21533 4.39288 9.19956 4.39288 10.4118C4.39288 11.624 3.40865 12.6082 2.19644 12.6082ZM2.19644 9.60548C1.75159 9.60548 1.39015 9.96692 1.39015 10.4118C1.39015 10.8566 1.75159 11.2181 2.19644 11.2181C2.64129 11.2181 3.00273 10.8566 3.00273 10.4118C3.00273 9.96692 2.64129 9.60548 2.19644 9.60548Z" fill="#333333"/>
<path d="M33.835 14.2756L24.7949 22.8037L25.7488 23.8149L34.789 15.2868L33.835 14.2756Z" fill="#333333"/>
<path d="M38.7409 12.6082C37.5287 12.6082 36.5444 11.624 36.5444 10.4118C36.5444 9.19956 37.5287 8.21533 38.7409 8.21533C39.9531 8.21533 40.9373 9.19956 40.9373 10.4118C40.9373 11.624 39.9531 12.6082 38.7409 12.6082ZM38.7409 9.60548C38.296 9.60548 37.9346 9.96692 37.9346 10.4118C37.9346 10.8566 38.296 11.2181 38.7409 11.2181C39.1857 11.2181 39.5472 10.8566 39.5472 10.4118C39.5472 9.96692 39.1857 9.60548 38.7409 9.60548Z" fill="#333333"/>
<path d="M20.4686 17.7349C16.3871 17.7349 13.073 21.0434 13.073 25.1305H27.8587C27.8642 21.0434 24.5501 17.7349 20.4686 17.7349Z" fill="#F3F0EB"/>
<path d="M20.4684 28.5609C22.3663 28.5609 23.9049 27.0223 23.9049 25.1244C23.9049 23.2265 22.3663 21.688 20.4684 21.688C18.5705 21.688 17.032 23.2265 17.032 25.1244C17.032 27.0223 18.5705 28.5609 20.4684 28.5609Z" fill="#FFA234"/>
</svg>
