<svg width="55" height="55" viewBox="0 0 55 55" fill="none" xmlns="http://www.w3.org/2000/svg">
<path d="M50.7836 52.7899H7.86283C5.53503 52.7899 3.64112 50.8491 3.64112 48.4626L3.63525 39.984V21.4436C3.63525 20.4234 3.9812 19.4383 4.61446 18.6761L4.6555 18.6292L5.24185 18.0487L5.31808 17.99L27.8046 1.24389L27.8222 1.23217C27.916 1.16767 28.0098 1.10317 28.0919 1.04453C28.9421 0.452322 29.6105 -0.0226212 30.5546 0.000832821C31.4693 0.0184233 32.2784 0.487503 33.4511 1.34944L33.5156 1.40221L53.6157 18.2422L54.0379 18.7054L54.0672 18.7406C54.677 19.5145 54.9936 20.4468 54.9936 21.4436V48.4685C54.9995 50.8491 53.1056 52.7899 50.7836 52.7899ZM6.27383 39.984L6.27969 48.4626C6.27969 49.3949 6.98917 50.1513 7.86283 50.1513H50.7836C51.6573 50.1513 52.3668 49.3949 52.3668 48.4626V21.4378C52.3668 21.0508 52.2495 20.6931 52.0267 20.3999L51.7921 20.1478L31.8621 3.44857C30.9122 2.75081 30.6073 2.64527 30.5135 2.63354C30.3669 2.66872 29.9506 2.9619 29.6105 3.2023C29.5284 3.26094 29.4405 3.32543 29.3467 3.38407L6.97158 20.0481L6.61977 20.3999C6.39696 20.6872 6.27969 21.0508 6.27969 21.4436V39.984H6.27383Z" fill="#333333"/>
<path d="M49.5934 24.6104H0V54.995H49.5934V24.6104Z" fill="#F3F0EB"/>
<path d="M16.4999 24.6096C18.5011 24.6096 20.1235 22.9872 20.1235 20.9859C20.1235 18.9847 18.5011 17.3623 16.4999 17.3623C14.4986 17.3623 12.8762 18.9847 12.8762 20.9859C12.8762 22.9872 14.4986 24.6096 16.4999 24.6096Z" fill="#FFA234"/>
<path d="M41.5426 24.6096C43.5439 24.6096 45.1662 22.9872 45.1662 20.9859C45.1662 18.9847 43.5439 17.3623 41.5426 17.3623C39.5413 17.3623 37.9189 18.9847 37.9189 20.9859C37.9189 22.9872 39.5413 24.6096 41.5426 24.6096Z" fill="#333333"/>
<path d="M29.9272 35.7205L26.0221 33.293L23.835 29.2238C23.1256 27.4823 21.4193 26.2627 19.4257 26.2627C19.3612 26.2627 19.2967 26.2627 19.2322 26.2627H13.6384C13.6384 26.2627 13.3453 26.2627 13.1928 26.2627C13.1693 26.2627 13.1518 26.2627 13.1283 26.2627C10.519 26.3037 8.42578 28.4087 8.42578 31.0297C8.42578 31.0942 8.42578 31.1704 8.42578 31.2349C8.42578 31.276 8.42578 31.3112 8.42578 31.3522V41.6485C8.42578 42.1469 8.631 42.5867 8.94763 42.9092C9.26426 43.2258 9.70989 43.431 10.2083 43.431C11.1875 43.431 11.9908 42.6277 11.9908 41.6485V32.0441C11.9908 31.8037 12.196 31.5985 12.4364 31.5985C12.6768 31.5985 12.882 31.8037 12.882 32.0441V45.4832L10.3373 52.3846C10.2962 52.4842 10.2728 52.6015 10.2493 52.7012C10.2376 52.8009 10.2259 52.9064 10.2259 52.9944C10.2259 53.7214 10.6715 54.4075 11.3927 54.6596C12.3191 55.0055 13.3394 54.5306 13.6795 53.6042L16.2477 46.6266C16.3767 46.3862 16.4412 46.1048 16.4412 45.8233V40.6752C16.4412 40.4348 16.6464 40.2295 16.8868 40.2295C17.1272 40.2295 17.3324 40.4348 17.3324 40.6752V53.2113C17.3324 53.7097 17.5377 54.1495 17.8543 54.472C18.1709 54.7886 18.6165 54.9938 19.1149 54.9938C20.0941 54.9938 20.8974 54.1905 20.8974 53.2113V31.2467L22.5627 34.3367L22.6623 34.5302L23.3484 35.8026C23.3601 35.8143 23.3894 35.8261 23.4011 35.8436L25.1074 36.8991L28.0568 38.7402C28.3499 38.9161 28.6783 39.0099 28.9949 39.0099C29.593 39.0099 30.1793 38.7168 30.5077 38.1715C31.0178 37.333 30.7657 36.2424 29.9272 35.7205ZM9.95029 29.5814C9.96202 29.5814 9.97374 29.5814 9.99133 29.5814C9.97374 29.5814 9.96202 29.5814 9.95029 29.5814Z" fill="#FFA234"/>
<path d="M49.5817 31.0297C49.5817 28.4205 47.4825 26.2979 44.8791 26.2627C44.8557 26.2627 44.8381 26.2627 44.8146 26.2627C44.6622 26.2627 44.369 26.2627 44.369 26.2627H38.7752C38.7107 26.2627 38.6463 26.2627 38.5818 26.2627C36.5882 26.2627 34.8819 27.4823 34.1724 29.2238L31.9853 33.293L29.939 34.5654C30.9533 34.9465 31.6921 35.9257 31.6921 37.0691C31.6921 37.2978 31.6687 37.5147 31.6159 37.72L32.9235 36.9049L34.6298 35.8495C34.6415 35.8378 34.6708 35.8261 34.6825 35.8085L35.3686 34.5361L35.4682 34.3426L37.1335 31.2525V53.2113C37.1335 54.1905 37.9368 54.9938 38.916 54.9938C39.4144 54.9938 39.8541 54.7886 40.1766 54.472C40.4933 54.1553 40.6985 53.7097 40.6985 53.2113V40.6928C40.6985 40.4524 40.9037 40.2471 41.1441 40.2471C41.3845 40.2471 41.5897 40.4524 41.5897 40.6928V53.2172C41.5897 54.1964 42.393 54.9997 43.3722 54.9997C43.9586 54.9997 44.4628 54.7182 44.7971 54.3019C45.0257 53.997 45.1547 53.6276 45.1547 53.223V32.0558C45.1547 31.8154 45.36 31.6102 45.6004 31.6102C45.8408 31.6102 46.046 31.8154 46.046 32.0558V41.6544C46.046 42.6336 46.8493 43.4369 47.8285 43.4369C48.3269 43.4369 48.7666 43.2317 49.0891 42.915C49.4058 42.5984 49.611 42.1528 49.611 41.6544V31.3463C49.611 31.3053 49.611 31.2701 49.611 31.2291C49.5817 31.1704 49.5817 31.0942 49.5817 31.0297ZM48.0161 29.5814C48.0278 29.5814 48.0396 29.5814 48.0689 29.5814C48.0572 29.5814 48.0278 29.5814 48.0161 29.5814Z" fill="#333333"/>
</svg>
