<svg width="24" height="24" viewBox="0 0 24 24" fill="none" xmlns="http://www.w3.org/2000/svg">
<path d="M1.335 0H22.68C23.415 0 24 0.585 24 1.32V22.68C24 23.4 23.415 24 22.68 24H16.56V14.7H19.68L20.145 11.085H16.56V8.775C16.56 7.725 16.86 7.005 18.36 7.005H20.28V3.765C19.95 3.72 18.81 3.63 17.49 3.63C14.715 3.63 12.825 5.31 12.825 8.415V11.085H9.69V14.7H12.825V24H1.335C0.98352 24 0.646211 23.8614 0.396276 23.6143C0.146342 23.3672 0.00394922 23.0315 0 22.68V1.32C0 0.585 0.6 0 1.335 0Z" fill="#797979"/>
</svg>
