<svg width="90" height="90" viewBox="0 0 90 90" fill="none" xmlns="http://www.w3.org/2000/svg">
<path d="M77.0371 36.6038C77.0371 44.1571 74.3423 51.4801 69.4486 57.2247L45.2207 85.6696L29.2246 36.6038L45.2207 4.78735C62.7636 4.78735 77.0371 19.0608 77.0371 36.6038Z" fill="#D24A43"/>
<path d="M45.2207 4.78735V85.6696L20.9927 57.2247C16.099 51.4801 13.4043 44.1571 13.4043 36.6038C13.4043 19.0608 27.6777 4.78735 45.2207 4.78735Z" fill="#BB443E"/>
<path d="M45.2208 15.3342C56.9693 15.3342 66.4903 24.8552 66.4903 36.6038C66.4903 48.3523 56.9693 57.8733 45.2208 57.8733L36.1053 36.6038L45.2208 15.3342Z" fill="white"/>
<path d="M45.2207 15.3342V57.8733C33.4722 57.8733 23.9511 48.3523 23.9511 36.6038C23.9511 24.8552 33.4722 15.3342 45.2207 15.3342Z" fill="white"/>
<path d="M44.9961 21.0002C53.8317 21.0002 60.9922 28.1607 60.9922 36.9963C60.9922 45.832 53.8317 52.9924 44.9961 52.9924L38.1406 36.9963L44.9961 21.0002Z" fill="#BB443E"/>
<path d="M44.9961 21.0002V52.9924C36.1604 52.9924 29 45.832 29 36.9963C29 28.1607 36.1604 21.0002 44.9961 21.0002Z" fill="#D24A43"/>
<path d="M48.085 38.4257V35.592H41.203V31.8188H53.4544V29.0002H38.3897V35.592H36V38.4257H38.3897H48.085Z" fill="white"/>
<path d="M41.2 40.1332H38.3853V45.0002H53.7452V39.2112H50.9305V42.1737H41.2V40.1332Z" fill="white"/>
</svg>
