<svg width="15" height="12" viewBox="0 0 15 12" fill="none" xmlns="http://www.w3.org/2000/svg">
<path fill-rule="evenodd" clip-rule="evenodd" d="M0.9375 11.25C0.9375 11.25 0 11.25 0 10.3125C0 9.375 0.9375 6.5625 5.625 6.5625C10.3125 6.5625 11.25 9.375 11.25 10.3125C11.25 11.25 10.3125 11.25 10.3125 11.25H0.9375ZM5.625 5.625C6.37092 5.625 7.08629 5.32868 7.61374 4.80124C8.14118 4.27379 8.4375 3.55842 8.4375 2.8125C8.4375 2.06658 8.14118 1.35121 7.61374 0.823762C7.08629 0.296316 6.37092 0 5.625 0C4.87908 0 4.16371 0.296316 3.63626 0.823762C3.10882 1.35121 2.8125 2.06658 2.8125 2.8125C2.8125 3.55842 3.10882 4.27379 3.63626 4.80124C4.16371 5.32868 4.87908 5.625 5.625 5.625ZM14.8631 2.94937C14.9068 2.99292 14.9414 3.04464 14.965 3.10159C14.9887 3.15854 15.0008 3.21959 15.0008 3.28125C15.0008 3.34291 14.9887 3.40396 14.965 3.46091C14.9414 3.51786 14.9068 3.56958 14.8631 3.61313L12.0506 6.42562C12.0071 6.46928 11.9554 6.50391 11.8984 6.52754C11.8415 6.55117 11.7804 6.56334 11.7188 6.56334C11.6571 6.56334 11.596 6.55117 11.5391 6.52754C11.4821 6.50391 11.4304 6.46928 11.3869 6.42562L9.98063 5.01937C9.89261 4.93136 9.84316 4.81198 9.84316 4.6875C9.84316 4.56302 9.89261 4.44364 9.98063 4.35563C10.0686 4.26761 10.188 4.21816 10.3125 4.21816C10.437 4.21816 10.5564 4.26761 10.6444 4.35563L11.7188 5.43094L14.1994 2.94937C14.2429 2.90572 14.2946 2.87109 14.3516 2.84746C14.4085 2.82383 14.4696 2.81166 14.5312 2.81166C14.5929 2.81166 14.654 2.82383 14.7109 2.84746C14.7679 2.87109 14.8196 2.90572 14.8631 2.94937Z" fill="#FFA234"/>
</svg>
