<svg width="11" height="11" viewBox="0 0 11 11" fill="none" xmlns="http://www.w3.org/2000/svg">
<path d="M4.32538 5.95075C4.96322 6.59781 5.73499 7.09738 6.58649 7.41436L7.73843 6.4977C7.77259 6.47418 7.81308 6.46158 7.85455 6.46158C7.89601 6.46158 7.9365 6.47418 7.97066 6.4977L10.1095 7.87575C10.1907 7.92457 10.2595 7.9916 10.3103 8.07155C10.3612 8.1515 10.3927 8.24218 10.4025 8.33642C10.4123 8.43066 10.4 8.52588 10.3667 8.61456C10.3333 8.70325 10.2798 8.78297 10.2104 8.84742L9.20816 9.83742C9.06463 9.97924 8.88822 10.0833 8.69468 10.1404C8.50114 10.1974 8.29649 10.2057 8.09899 10.1644C6.12883 9.75746 4.31289 8.80449 2.85871 7.41436C1.4368 6.01041 0.452852 4.22401 0.0262123 2.27186C-0.0159342 2.07742 -0.00713761 1.87539 0.0517494 1.68534C0.110636 1.4953 0.217617 1.32369 0.362323 1.18714L1.40121 0.184919C1.4655 0.118854 1.5439 0.0681888 1.63055 0.0367175C1.71719 0.00524613 1.80983 -0.00621605 1.90153 0.00318921C1.99323 0.0125945 2.08162 0.0426235 2.16007 0.0910276C2.23852 0.139432 2.30501 0.204957 2.35455 0.282696L3.77843 2.39409C3.80299 2.42724 3.81625 2.46741 3.81625 2.50867C3.81625 2.54993 3.80299 2.5901 3.77843 2.62325L2.84038 3.75075C3.16597 4.58521 3.67324 5.33671 4.32538 5.95075Z" fill="#FFA234"/>
</svg>
