<svg width="43" height="38" viewBox="0 0 43 38" fill="none" xmlns="http://www.w3.org/2000/svg">
<path fill-rule="evenodd" clip-rule="evenodd" d="M8.14286 19H14.9286C17.1763 19 19 20.8237 19 23.0714V33.9286C19 36.1763 17.1763 38 14.9286 38H4.07143C1.82366 38 0 36.1763 0 33.9286V13.5714C0 6.07321 6.07321 0 13.5714 0H14.25C15.3781 0 16.2857 0.907589 16.2857 2.03571V6.10714C16.2857 7.23527 15.3781 8.14286 14.25 8.14286H13.5714C10.5772 8.14286 8.14286 10.5772 8.14286 13.5714V19ZM32.1429 19H38.9286C41.1763 19 43 20.8237 43 23.0714V33.9286C43 36.1763 41.1763 38 38.9286 38H28.0714C25.8237 38 24 36.1763 24 33.9286V13.5714C24 6.07321 30.0732 0 37.5714 0H38.25C39.3781 0 40.2857 0.907589 40.2857 2.03571V6.10714C40.2857 7.23527 39.3781 8.14286 38.25 8.14286H37.5714C34.5772 8.14286 32.1429 10.5772 32.1429 13.5714V19Z" fill="#D24A43"/>
</svg>
